<svg xmlns="http://www.w3.org/2000/svg" viewBox="0 0 1400 900" role="img" aria-label="Distribución internacional de productos solares">
  <defs>
    <linearGradient id="sky" x1="0" x2="1" y1="0" y2="1">
      <stop offset="0" stop-color="#f8fbff"/><stop offset="0.55" stop-color="#e9f1ff"/><stop offset="1" stop-color="#fff7e8"/>
    </linearGradient>
    <linearGradient id="panel" x1="0" x2="1"><stop offset="0" stop-color="#09235f"/><stop offset="1" stop-color="#0f4aa1"/></linearGradient>
    <linearGradient id="sun" x1="0" x2="1"><stop offset="0" stop-color="#ffb12b"/><stop offset="1" stop-color="#f47c16"/></linearGradient>
    <filter id="shadow" x="-20%" y="-20%" width="140%" height="140%"><feDropShadow dx="0" dy="24" stdDeviation="18" flood-color="#061b49" flood-opacity="0.18"/></filter>
  </defs>
  <rect width="1400" height="900" fill="url(#sky)"/>
  <circle cx="1120" cy="170" r="95" fill="url(#sun)" opacity=".9"/>
  <path d="M-10 690 C220 590 390 650 570 560 C750 470 925 515 1080 430 C1210 360 1320 390 1410 340 L1410 900 L-10 900 Z" fill="#ffffff" opacity=".78"/>
  <g opacity=".16" stroke="#0b2f73" fill="none">
    <path d="M120 705 C340 530 570 500 900 580 C1110 630 1270 555 1370 460" stroke-width="2"/>
    <path d="M210 612 C470 440 730 420 1060 500" stroke-width="2"/>
    <path d="M260 770 C520 650 790 660 1150 710" stroke-width="2"/>
  </g>
  <g transform="translate(145 185)" filter="url(#shadow)">
    <rect x="0" y="0" width="740" height="460" rx="38" fill="#ffffff"/>
    <rect x="54" y="74" width="410" height="260" rx="16" fill="url(#panel)"/>
    <g stroke="#9cc6ff" stroke-width="2" opacity=".55">
      <path d="M54 126h410M54 178h410M54 230h410M54 282h410"/>
      <path d="M122 74v260M190 74v260M258 74v260M326 74v260M394 74v260"/>
    </g>
    <g transform="translate(506 72)">
      <rect width="156" height="260" rx="24" fill="#071b49"/>
      <rect x="24" y="30" width="108" height="78" rx="12" fill="#f5f8ff" opacity=".96"/>
      <rect x="32" y="126" width="92" height="12" rx="6" fill="#f4a11a"/>
      <rect x="32" y="152" width="92" height="12" rx="6" fill="#2d84ff" opacity=".75"/>
      <circle cx="78" cy="214" r="24" fill="#ffffff" opacity=".14"/>
      <path d="M88 183 66 222h18l-10 36 31-50H87l1-25Z" fill="#f4a11a"/>
    </g>
    <g transform="translate(74 374)">
      <rect width="190" height="34" rx="17" fill="#eef4ff"/><rect x="18" y="10" width="120" height="14" rx="7" fill="#061b49" opacity=".72"/>
      <rect x="220" width="150" height="34" rx="17" fill="#fff3df"/><rect x="238" y="10" width="82" height="14" rx="7" fill="#f4a11a" opacity=".82"/>
      <rect x="398" width="210" height="34" rx="17" fill="#eef4ff"/><rect x="416" y="10" width="150" height="14" rx="7" fill="#061b49" opacity=".72"/>
    </g>
  </g>
  <g transform="translate(890 470)" filter="url(#shadow)">
    <rect width="310" height="190" rx="30" fill="#061b49"/>
    <path d="M34 112h242" stroke="#fff" opacity=".12" stroke-width="4"/>
    <circle cx="92" cy="91" r="46" fill="#fff" opacity=".12"/>
    <path d="M105 42 75 104h26l-15 53 49-79h-28l-2-36Z" fill="#f4a11a"/>
    <rect x="176" y="58" width="76" height="18" rx="9" fill="#fff" opacity=".82"/>
    <rect x="176" y="90" width="54" height="12" rx="6" fill="#fff" opacity=".35"/>
    <rect x="176" y="118" width="84" height="12" rx="6" fill="#fff" opacity=".35"/>
  </g>
</svg>
