<svg xmlns="http://www.w3.org/2000/svg" viewBox="0 0 900 620" role="img" aria-label="Inversores FOX monofásicos híbridos y baterías">
<defs><linearGradient id="g" x1="0" x2="1"><stop stop-color="#ffffff"/><stop offset="1" stop-color="#edf4ff"/></linearGradient><filter id="sh"><feDropShadow dx="0" dy="24" stdDeviation="18" flood-color="#061b49" flood-opacity=".22"/></filter></defs>
<rect width="900" height="620" rx="40" fill="#061b49"/>
<circle cx="760" cy="120" r="84" fill="#f4a11a" opacity=".9"/>
<g transform="translate(125 115)" filter="url(#sh)"><rect width="250" height="345" rx="34" fill="url(#g)"/><rect x="54" y="55" width="142" height="96" rx="18" fill="#061b49" opacity=".88"/><path d="M145 72 97 169h38l-22 77 78-128h-44l-2-46Z" fill="#f4a11a"/><rect x="56" y="250" width="136" height="18" rx="9" fill="#0e3a85" opacity=".25"/><rect x="56" y="287" width="92" height="18" rx="9" fill="#f4a11a" opacity=".75"/></g>
<g transform="translate(440 180)" filter="url(#sh)"><rect width="330" height="220" rx="28" fill="#ffffff"/><rect x="40" y="44" width="250" height="24" rx="12" fill="#061b49"/><rect x="40" y="92" width="180" height="16" rx="8" fill="#a7b9d6"/><rect x="40" y="128" width="220" height="16" rx="8" fill="#a7b9d6"/><rect x="40" y="164" width="140" height="16" rx="8" fill="#f4a11a"/></g>
<text x="450" y="532" font-size="30" text-anchor="middle" fill="#fff" font-family="Arial" font-weight="700">FOX · Monofásicos · Híbridos · Baterías</text>
</svg>
