<svg xmlns="http://www.w3.org/2000/svg" viewBox="0 0 900 620" role="img" aria-label="NEP microinversores 2250W híbrido 12kW y RSD">
<defs><linearGradient id="n" x1="0" x2="1" y1="0" y2="1"><stop stop-color="#eaf3ff"/><stop offset="1" stop-color="#ffffff"/></linearGradient><filter id="sh"><feDropShadow dx="0" dy="18" stdDeviation="14" flood-color="#061b49" flood-opacity=".18"/></filter></defs>
<rect width="900" height="620" rx="40" fill="url(#n)"/>
<g transform="translate(90 100)" filter="url(#sh)"><rect width="210" height="270" rx="28" fill="#061b49"/><rect x="34" y="48" width="142" height="92" rx="16" fill="#fff" opacity=".13"/><path d="M118 53 82 146h30l-17 70 55-114h-32V53Z" fill="#f4a11a"/><text x="105" y="232" font-size="24" fill="#fff" text-anchor="middle" font-family="Arial" font-weight="700">2250W</text></g>
<g transform="translate(342 80)" filter="url(#sh)"><rect width="230" height="315" rx="28" fill="#ffffff"/><rect x="45" y="50" width="140" height="92" rx="18" fill="#0d3c86"/><rect x="50" y="184" width="130" height="18" rx="9" fill="#061b49" opacity=".75"/><rect x="50" y="224" width="98" height="18" rx="9" fill="#f4a11a"/><text x="115" y="280" font-size="25" fill="#061b49" text-anchor="middle" font-family="Arial" font-weight="700">12 kW</text></g>
<g transform="translate(620 130)" filter="url(#sh)"><rect width="190" height="220" rx="28" fill="#fff8ec"/><circle cx="95" cy="82" r="45" fill="#f4a11a" opacity=".22"/><path d="M95 34v96M47 82h96" stroke="#061b49" stroke-width="14" stroke-linecap="round"/><text x="95" y="176" font-size="24" fill="#061b49" text-anchor="middle" font-family="Arial" font-weight="700">RSD x2</text></g>
<text x="450" y="515" font-size="30" text-anchor="middle" fill="#061b49" font-family="Arial" font-weight="700">NEP · Microinversores · Híbrido · Rapid Shutdown</text>
</svg>
