<svg xmlns="http://www.w3.org/2000/svg" viewBox="0 0 900 620" role="img" aria-label="Paneles solares por marca y disponibilidad">
<defs><linearGradient id="a" x1="0" x2="1" y1="0" y2="1"><stop stop-color="#0b2a67"/><stop offset="1" stop-color="#1d74d8"/></linearGradient><filter id="s"><feDropShadow dx="0" dy="22" stdDeviation="16" flood-color="#061b49" flood-opacity=".2"/></filter></defs>
<rect width="900" height="620" rx="40" fill="#f7fbff"/>
<path d="M0 455 C165 375 303 470 470 387 C610 317 730 338 900 260 L900 620 L0 620Z" fill="#fff0d6" opacity=".7"/>
<g transform="translate(120 115) skewY(-8)" filter="url(#s)"><rect width="610" height="310" rx="22" fill="url(#a)"/><g stroke="#a8d4ff" stroke-width="3" opacity=".62"><path d="M0 62h610M0 124h610M0 186h610M0 248h610"/><path d="M87 0v310M174 0v310M261 0v310M348 0v310M435 0v310M522 0v310"/></g></g>
<g transform="translate(90 446)"><rect width="230" height="56" rx="28" fill="#061b49"/><text x="115" y="36" font-size="20" text-anchor="middle" fill="#fff" font-family="Arial">Por marca</text></g>
<g transform="translate(346 446)"><rect width="250" height="56" rx="28" fill="#f4a11a"/><text x="125" y="36" font-size="20" text-anchor="middle" fill="#061b49" font-family="Arial" font-weight="700">Según oferta</text></g>
<g transform="translate(620 446)"><rect width="190" height="56" rx="28" fill="#fff" stroke="#dbe8f7"/><text x="95" y="36" font-size="20" text-anchor="middle" fill="#061b49" font-family="Arial">Cotizable</text></g>
</svg>
